HIERARCHY
ROOT cube_med
{
	OFFSET 0.000000 0.000000 0.000000
	CHANNELS 6 Xposition Yposition Zposition Yrotation Xrotation Zrotation
	End Site
	{
		OFFSET 0.000000 0.000000 0.000000
	}
}
MOTION
Frames: 114
Frame Time: 0.008333334
-2.770441 0.814115 2.682023 -98.064390 -0.798615 -0.901337 
-2.770572 0.813950 2.681782 -98.076900 -0.800385 -0.873505 
-2.770864 0.814001 2.681887 -98.089480 -0.760468 -0.970734 
-2.770831 0.814084 2.681626 -98.048650 -0.808777 -0.913879 
-2.771092 0.814005 2.681803 -98.062470 -0.778076 -0.959015 
-2.770787 0.814071 2.681689 -98.051090 -0.833740 -0.940796 
-2.770692 0.813981 2.681993 -98.135620 -0.860626 -0.919434 
-2.771125 0.814147 2.681833 -98.091980 -0.845886 -0.971130 
-2.770396 0.814130 2.681679 -98.112060 -0.798431 -0.929749 
-2.770383 0.814093 2.681643 -98.111300 -0.823334 -0.929535 
-2.770593 0.813999 2.681652 -98.074950 -0.820984 -0.917725 
-2.770675 0.814006 2.681832 -98.105220 -0.818756 -0.909485 
-2.770820 0.814222 2.681818 -98.079590 -0.763336 -0.907959 
-2.770749 0.814016 2.681890 -98.118990 -0.829407 -0.875763 
-2.770750 0.814007 2.681815 -98.131100 -0.809753 -0.878998 
-2.770931 0.814059 2.682186 -98.096100 -0.789917 -0.861542 
-2.771730 0.814083 2.683569 -97.822330 -0.755310 -0.861511 
-2.774111 0.813978 2.687721 -97.378110 -0.773712 -0.833832 
-2.776828 0.813910 2.693368 -96.665560 -0.819702 -0.775635 
-2.780362 0.813463 2.700645 -96.221280 -0.728821 -0.791596 
-2.782343 0.813514 2.707881 -95.615300 -0.723663 -0.837128 
-2.784089 0.813464 2.715428 -95.269900 -0.780609 -0.833618 
-2.786934 0.813147 2.723863 -94.902310 -0.753967 -0.825684 
-2.788686 0.813060 2.734449 -94.624510 -0.758270 -0.890656 
-2.790949 0.813228 2.743507 -94.371460 -0.737396 -0.737854 
-2.794921 0.813351 2.750117 -93.396730 -0.783752 -0.813110 
-2.803043 0.812761 2.753097 -92.544460 -0.670807 -0.852905 
-2.810825 0.812868 2.757017 -92.241330 -0.746552 -0.938049 
-2.817620 0.812428 2.756776 -91.858220 -0.634186 -0.861359 
-2.821498 0.812523 2.758043 -91.601380 -0.588623 -0.946289 
-2.824983 0.812953 2.758012 -91.435300 -0.710175 -0.814972 
-2.827760 0.813326 2.759834 -91.108640 -0.602539 -0.970459 
-2.827665 0.816588 2.767975 -90.634370 -0.790710 -1.470886 
-2.824465 0.823918 2.779472 -90.168640 -1.297974 -2.225555 
-2.819423 0.834537 2.790027 -89.614990 -1.936066 -3.081696 
-2.811911 0.849260 2.799347 -89.050290 -2.536499 -3.663086 
-2.799330 0.868135 2.805544 -88.205540 -3.505554 -3.992920 
-2.783200 0.891470 2.811472 -87.330080 -4.604218 -4.040131 
-2.766074 0.918829 2.813702 -86.357850 -5.766052 -3.922180 
-2.748485 0.949980 2.814902 -85.333280 -6.834717 -3.541229 
-2.732378 0.982001 2.815521 -84.498840 -7.895691 -3.404724 
-2.718376 1.014613 2.820792 -83.753540 -8.717865 -3.838165 
-2.705298 1.050124 2.828869 -83.083650 -9.421814 -4.721924 
-2.691499 1.088630 2.835665 -82.292720 -10.219300 -5.521149 
-2.676408 1.132317 2.840641 -81.504760 -11.069790 -6.194611 
-2.658505 1.180055 2.844299 -80.589170 -12.053530 -6.810760 
-2.639451 1.232117 2.846858 -79.669920 -13.208010 -7.424805 
-2.617975 1.288080 2.849604 -78.507540 -14.227170 -8.097168 
-2.593695 1.348823 2.850094 -77.119570 -15.545750 -8.732025 
-2.567839 1.412167 2.849780 -76.051730 -16.824770 -9.264923 
-2.541218 1.478051 2.848128 -74.800260 -18.111240 -9.923737 
-2.513479 1.546061 2.849163 -73.613070 -19.310030 -10.834840 
-2.484937 1.615060 2.853119 -72.606410 -20.467800 -12.194730 
-2.453955 1.684897 2.856209 -71.570770 -21.510280 -13.753170 
-2.423225 1.759099 2.859498 -70.469180 -22.739200 -15.374760 
-2.388009 1.836330 2.860479 -69.348600 -23.857600 -16.634490 
-2.351045 1.916611 2.858136 -68.194890 -25.131100 -17.782040 
-2.313955 2.000747 2.854780 -67.070680 -26.234650 -18.824100 
-2.276414 2.086422 2.851142 -65.761690 -26.980770 -20.007230 
-2.239155 2.173047 2.847741 -64.696110 -27.791900 -21.081970 
-2.198332 2.261340 2.843245 -63.311190 -28.374600 -22.166530 
-2.153857 2.351285 2.838897 -61.925990 -29.251500 -23.141850 
-2.105810 2.442155 2.832056 -60.608030 -30.228550 -24.375580 
-2.054779 2.533870 2.825105 -59.439120 -31.297730 -25.659580 
-2.001978 2.624951 2.817829 -58.096250 -32.388460 -27.162630 
-1.947463 2.713200 2.812209 -56.711880 -33.502690 -28.830440 
-1.891372 2.799951 2.804737 -55.399720 -34.571660 -30.530330 
-1.832897 2.884858 2.797499 -53.857120 -35.071720 -32.289610 
-1.773095 2.966373 2.790418 -52.087490 -35.799320 -34.033870 
-1.712043 3.046241 2.782070 -50.150300 -36.629300 -35.812410 
-1.650065 3.123697 2.771383 -48.416750 -37.241850 -37.185060 
-1.591345 3.199470 2.759995 -46.969330 -37.729340 -38.586640 
-1.532931 3.272899 2.746700 -45.158170 -38.333920 -39.975400 
-1.477516 3.343565 2.736439 -44.003630 -39.030760 -41.339450 
-1.423649 3.409309 2.726709 -42.873660 -39.592250 -42.845610 
-1.369851 3.471318 2.716239 -41.299870 -40.387510 -44.492460 
-1.313552 3.527424 2.705367 -39.932010 -40.966250 -45.959260 
-1.261068 3.579787 2.696838 -38.376650 -41.206570 -47.867190 
-1.207379 3.628053 2.687366 -36.950130 -41.566350 -49.486850 
-1.154861 3.673255 2.676500 -35.284730 -41.670040 -51.071010 
-1.105175 3.714269 2.666836 -33.541260 -42.318910 -52.712890 
-1.057712 3.754957 2.654818 -32.201660 -41.995700 -53.803190 
-1.014196 3.792547 2.644125 -31.140080 -42.403140 -54.927580 
-0.974563 3.829288 2.634354 -30.587190 -42.543670 -55.730380 
-0.935291 3.863844 2.621625 -29.645600 -42.730410 -56.613370 
-0.899986 3.895378 2.611700 -28.879460 -43.078490 -57.431210 
-0.866312 3.923210 2.600616 -27.990300 -43.348180 -58.339170 
-0.834948 3.948323 2.588556 -27.108000 -43.598300 -59.141850 
-0.805613 3.972100 2.578425 -26.285830 -43.895290 -59.888400 
-0.778124 3.991872 2.567748 -25.669190 -43.871860 -60.490880 
-0.752011 4.010555 2.558719 -24.982910 -44.104430 -61.085080 
-0.727045 4.026454 2.548930 -24.259090 -44.065310 -61.518010 
-0.703714 4.042180 2.538775 -23.761750 -44.296660 -61.963930 
-0.681112 4.055913 2.528125 -22.956910 -44.419950 -62.350620 
-0.660035 4.069539 2.518708 -22.876190 -44.478150 -62.461520 
-0.639304 4.081315 2.508801 -22.693880 -44.497960 -62.410740 
-0.620513 4.093134 2.499792 -22.343020 -44.806400 -62.593810 
-0.602306 4.103432 2.491544 -21.985320 -44.906310 -62.670900 
-0.584805 4.112354 2.482824 -21.829220 -45.026820 -62.812590 
-0.566891 4.118538 2.475391 -21.308590 -45.079960 -63.159210 
-0.549885 4.123251 2.469068 -20.821780 -45.378450 -63.482910 
-0.532401 4.125338 2.463734 -20.556000 -45.348450 -63.751590 
-0.516640 4.127096 2.459449 -20.379670 -45.422240 -64.176970 
-0.500355 4.127911 2.456242 -20.233670 -45.457670 -64.496730 
-0.484552 4.128634 2.451090 -19.699920 -45.367030 -64.557860 
-0.469758 4.129765 2.447671 -19.342350 -45.605260 -64.957730 
-0.455513 4.131374 2.442317 -19.145810 -45.598750 -64.924800 
-0.442252 4.134446 2.437955 -19.139040 -45.520690 -64.756810 
-0.431280 4.139550 2.433676 -18.991490 -45.652280 -64.465360 
-0.419586 4.144867 2.426347 -19.289670 -45.741610 -63.879060 
-0.411873 4.151697 2.421869 -19.437190 -45.846560 -63.475710 
-0.403327 4.158397 2.416146 -19.606660 -45.918270 -62.920350 
-0.398448 4.162820 2.412000 -19.792850 -45.893980 -62.424470 
-0.393547 4.167727 2.407489 -19.786010 -46.038330 -62.152650 
